<svg width="66" height="67" viewBox="0 0 66 67" fill="none" xmlns="http://www.w3.org/2000/svg">
<path d="M51.3931 30.1744C47.8729 27.8479 44.5769 25.1396 43.5191 21.8716C42.6103 19.0528 43.4822 16.1073 43.0588 13.2372C42.2001 7.2689 35.2216 1.94576 26.6247 0.689591C18.0292 -0.566577 8.47477 2.3618 4.13278 7.5744C1.34729 10.9108 0.649445 14.8843 0.749771 18.7221C0.848618 22.559 1.69548 26.3797 1.74564 30.2246C1.80761 35.1488 0.562401 40.0388 0.413391 44.963C0.264374 49.8872 1.32221 55.0405 5.47684 59.0642C9.45737 62.9182 16.0021 65.3632 22.8183 66.1189C29.6359 66.8746 36.7014 66.0515 43.1207 64.311C49.0546 62.7061 54.6035 60.2872 58.7212 56.9509C62.839 53.6135 65.6495 50.0228 65.1405 45.6765C64.1447 37.1868 54.9148 32.5008 51.3931 30.1744Z" fill="#E8E9DA"/>
<g clip-path="url(#clip0_15_5)">
<path d="M12.1732 52.7127C12.1698 53.1244 12.4617 53.5038 12.8955 53.5616L12.8964 53.5618C13.8889 53.6922 14.4453 54.2102 14.7779 54.7956C15.0809 55.3289 15.1986 55.9246 15.2423 56.3409H8.28036V46.7697L21.4889 49.2243L22.0735 53.5422L13.1457 51.8848L13.0527 52.376L13.1439 51.8844L13.1447 51.8846C12.5994 51.782 12.1761 52.2304 12.1732 52.7127ZM12.1732 52.7127C12.1732 52.7132 12.1732 52.7137 12.1732 52.7142L12.6732 52.7162L12.1732 52.7113C12.1732 52.7118 12.1732 52.7122 12.1732 52.7127ZM25.0518 19.0938C25.2982 18.885 25.508 18.679 25.6837 18.4882L25.8199 19.2882L21.7724 27.0541L19.5498 26.9836L18.6267 26.9543L19.1068 27.7433C19.6083 28.5673 19.9036 29.5529 19.9036 30.6142C19.9036 31.3538 19.7615 32.0553 19.5058 32.6912L19.3794 33.0054L19.6242 33.2393C20.5578 34.1312 21.1536 35.4362 21.1536 36.9009C21.1536 39.631 19.1013 41.7838 16.6429 41.7838C14.1851 41.7838 12.1321 39.6327 12.1321 36.9009C12.1321 36.3575 12.2161 35.835 12.3671 35.3452L12.4671 35.0209L12.2026 34.8082C11.0236 33.8605 10.2518 32.3407 10.2518 30.6161C10.2518 27.6983 12.445 25.3958 15.0768 25.3958L15.0911 25.3961L15.0927 25.3962C15.1009 25.3964 15.1156 25.3968 15.1313 25.3968H15.5098L15.6125 25.0325C16.2017 22.9424 18.2115 21.1335 20.447 20.9347L20.4471 20.9347C22.6107 20.7419 24.1006 19.8998 25.0518 19.0938ZM45.6472 51.3921C50.5105 52.1052 52.7169 55.0008 53.4945 56.3409H41.8867L39.4663 48.3573L43.4851 46.6971L44.9884 50.8444C44.9887 50.8452 44.989 50.8461 44.9893 50.8469C45.0906 51.1311 45.3381 51.3468 45.6472 51.3921ZM43.666 46.6224C43.6657 46.6225 43.6655 46.6226 43.6652 46.6227L43.6659 46.6224L43.666 46.6224Z" fill="#FCDA00" stroke="black"/>
<path d="M45.0143 34.874C44.1402 35.059 43.2723 34.3421 43.0768 33.2736L45.0143 34.874ZM45.0143 34.874C45.8884 34.69 46.4366 33.6732 46.242 32.6037L45.0143 34.874ZM44.2734 29.9741L44.2735 29.975C44.3746 30.5209 44.6386 31.0282 45.0477 31.4054L45.3866 31.0378L45.0471 31.4049C45.1135 31.4663 45.1775 31.5347 45.2381 31.6086C44.9846 31.483 44.6893 31.437 44.3819 31.5022C44.1023 31.5615 43.8652 31.7017 43.6833 31.8922C43.7053 31.8302 43.7296 31.77 43.7562 31.7121L43.7563 31.712C43.9948 31.1918 44.0721 30.6061 43.9688 30.0354L43.9686 30.0344L42.6114 22.6284L42.543 22.2546L42.1645 22.2205C41.6023 22.1699 41.0481 21.8311 40.7154 21.2301C40.3151 20.5026 40.371 19.6374 40.7682 19.0107L40.959 20.055C40.959 20.055 40.959 20.0551 40.959 20.0551C41.1062 20.8611 41.877 21.4756 42.7302 21.225L42.7309 21.2248C43.4538 21.0114 43.8643 20.2575 43.7312 19.5251L43.7311 19.5243L43.6043 18.8328C43.6892 18.9337 43.7665 19.0457 43.8344 19.1687C44.3834 20.1664 44.0737 21.415 43.2126 21.9637C43.2114 21.9644 43.2085 21.966 43.2033 21.9688L43.1784 21.9822C43.1678 21.988 43.1543 21.9956 43.1393 22.0048L42.8452 22.1836L42.9073 22.5221L44.2734 29.9741ZM43.016 18.3614L43.0172 18.362L43.016 18.3614ZM44.9113 34.3847L44.9108 34.3848C44.7497 34.4189 44.5727 34.4004 44.4008 34.3311C44.5676 34.3635 44.7448 34.3637 44.9261 34.3252L44.9269 34.3251C45.0662 34.2953 45.195 34.2454 45.3117 34.1792C45.1893 34.2842 45.0521 34.3551 44.9113 34.3847Z" fill="#22A454" stroke="black"/>
<path d="M33.458 18.3044C33.458 18.3094 33.4575 18.3133 33.4568 18.3163L33.0249 18.341L33.0075 18.7951C32.9468 20.3804 31.7424 21.587 30.3321 21.587C30.2972 21.587 30.2616 21.5856 30.222 21.5831L29.8138 21.5578L29.7081 21.9529L28.9833 24.6613L25.1853 22.1956L26.7699 19.6341L26.9961 19.2683L26.6683 18.9899C26.4948 18.8426 26.3268 18.6199 26.2083 18.3307C26.0632 17.9751 26.038 17.6333 26.0913 17.3678C26.1453 17.099 26.2687 16.9454 26.3884 16.879C26.5584 16.7853 26.8147 16.8058 27.0175 16.9547L28.3859 17.9592L27.7805 16.3733L27.6566 16.0486C27.7001 14.4487 28.9141 13.2231 30.3339 13.2231H31.3768C32.247 13.2231 33.0116 13.9913 33.0116 15.0164V17.6259V18.0942L33.4567 18.1234C33.4575 18.1262 33.458 18.1299 33.458 18.1348V18.3044Z" fill="white" stroke="black"/>
<path d="M27.478 15.8581L29.2462 15.4827L27.9958 16.7739C27.8548 16.5717 27.6915 16.3957 27.5124 16.2537L27.497 16.2415L27.4807 16.2305C27.2991 16.1085 27.0903 16.0242 26.8735 15.9865L27.478 15.8581ZM25.845 16.2042C25.7823 16.2483 25.7248 16.2972 25.6721 16.35C25.6741 16.3139 25.678 16.2767 25.6839 16.2384L25.845 16.2042Z" fill="#FCDA00" stroke="black"/>
<path d="M25.7909 15.3122L25.2901 15.3127M25.7909 15.3122C25.7844 15.4133 25.7811 15.5155 25.7813 15.6186L25.7813 15.6192L25.7813 15.8123L33.9947 15.8041M25.7909 15.3122C25.9305 13.1497 27.5599 11.5025 29.437 11.5L29.8313 11.5L29.8315 11.5C31.3481 11.4992 32.6969 12.5629 33.2423 14.1242L33.3009 14.2921L33.4524 14.3852L34.9444 15.3029L33.9942 15.3041L33.9947 15.8041M25.7909 15.3122L33.994 15.3041L33.9947 15.8041M25.2901 15.3127L35.6339 15.14C35.9214 15.3173 35.808 15.8013 35.4804 15.8022L33.9947 15.8041M25.2901 15.3127C25.4309 12.9163 27.241 11.0028 29.4366 11L25.2901 15.3127Z" fill="#22A454" stroke="black"/>
<path d="M32.323 17.2967C32.3119 17.2866 32.307 17.2764 32.3055 17.2706L32.3727 17.2526L32.3815 17.281L32.323 17.2967ZM32.3233 17.2969L32.3816 17.2814L32.3937 17.3209C32.3718 17.3214 32.3512 17.3154 32.3362 17.3063C32.3312 17.3033 32.3269 17.3002 32.3233 17.2969ZM32.4231 17.3164C32.4134 17.3193 32.4037 17.3207 32.3942 17.3209L32.382 17.2813L32.4104 17.2737L32.4231 17.3164ZM32.4103 17.2733L32.3819 17.2809L32.3732 17.2524L32.4018 17.2448L32.4103 17.2733ZM32.4015 17.244L32.3729 17.2516L32.3597 17.2083C32.3696 17.2052 32.3796 17.2037 32.3895 17.2034L32.4015 17.244ZM32.407 17.2425L32.3947 17.2034C32.4156 17.2037 32.4352 17.2096 32.45 17.2185C32.455 17.2214 32.4592 17.2245 32.4628 17.2277L32.407 17.2425ZM32.4072 17.2433L32.4634 17.2282C32.4751 17.2387 32.4799 17.2492 32.4813 17.2543L32.4161 17.2718L32.4072 17.2433ZM32.4294 17.3145L32.4162 17.2722L32.4814 17.2548C32.483 17.2611 32.4826 17.2691 32.4782 17.2777C32.4736 17.2864 32.4593 17.3051 32.4294 17.3145ZM32.3724 17.2517L32.3052 17.2696C32.3036 17.2635 32.3039 17.2553 32.3086 17.2464C32.3133 17.2373 32.3282 17.218 32.3591 17.2084L32.3724 17.2517Z" fill="#FCDA00" stroke="black"/>
<path d="M44.3833 45.1295L44.7273 45.9725C44.6516 46.0723 44.5475 46.2037 44.4156 46.3568C44.1014 46.7214 43.6321 47.206 43.0157 47.6816C41.838 48.5901 40.1402 49.4539 37.9596 49.4099L34.6634 41.596L34.3865 40.9395L33.8633 41.4231L30.7499 44.301L30.3301 44.6891L30.7698 45.0527L30.77 45.053L30.77 45.053L30.7703 45.0532L30.7706 45.0535L30.774 45.0563L30.7949 45.0745C30.8144 45.0917 30.8447 45.119 30.8841 45.1563C30.963 45.2309 31.078 45.3451 31.2157 45.4979C31.4915 45.8038 31.8558 46.2617 32.202 46.8622C32.8927 48.0604 33.5108 49.8239 33.2132 52.0964L33.2132 52.0965C32.9269 54.285 31.6547 55.3256 30.437 55.8417C29.8191 56.1037 29.2144 56.2289 28.7615 56.2881C28.5361 56.3175 28.3509 56.3302 28.224 56.3355C28.1607 56.3382 28.1121 56.3391 28.0805 56.3393C28.0647 56.3394 28.0532 56.3393 28.0462 56.3393L28.0394 56.3392L28.0394 56.339H28.0268H19.8642L17.6568 48.5107L21.8451 49.2901L22.2424 48.4039C22.2429 48.4034 22.2429 48.4034 22.2429 48.4034L22.2427 48.4032L22.2426 48.4031L22.2402 48.4013L22.2292 48.3926C22.219 48.3845 22.2032 48.372 22.1824 48.3552C22.1406 48.3215 22.0783 48.2704 21.9983 48.2028C21.8384 48.0677 21.6085 47.8668 21.3328 47.6074C20.7808 47.0879 20.0487 46.3369 19.3281 45.4116C17.8763 43.5475 16.5253 41.0455 16.6848 38.3381L16.2409 38.3119L16.6848 38.3381C16.8529 35.4844 17.6665 30.5568 19.4384 26.9979C20.3264 25.2144 21.4186 23.8492 22.7193 23.2127C23.9782 22.5967 25.5323 22.6164 27.4924 23.8228L27.4928 23.8231C28.338 24.3422 29.0283 25.2894 29.5806 26.4387L29.5897 26.4576L29.6003 26.4757C30.1019 27.3283 30.8543 28.5216 31.6887 29.5435C32.1057 30.0542 32.5528 30.5341 33.0086 30.9092C33.3612 31.1993 33.7437 31.4475 34.1422 31.586L34.2097 31.8737L34.311 32.3053L34.7517 32.2564C35.7308 32.1475 36.862 32.2794 37.982 32.9942C39.1063 33.7117 40.268 35.0478 41.2443 37.4369L44.3833 45.1295Z" fill="#22A454" stroke="black"/>
<mask id="path-9-inside-1_15_5" fill="white">
<path d="M34.5768 31.2582C37.217 31.2956 39.808 29.767 39.808 29.767L42.3732 30.1609L42.0982 32.4226C40.533 35.5055 38.0527 37.0226 36.1053 37.7643"/>
</mask>
<path d="M34.5768 31.2582C37.217 31.2956 39.808 29.767 39.808 29.767L42.3732 30.1609L42.0982 32.4226C40.533 35.5055 38.0527 37.0226 36.1053 37.7643" fill="white"/>
<path d="M39.808 29.767L39.9598 28.7786L39.6072 28.7245L39.2999 28.9057L39.808 29.767ZM42.3732 30.1609L43.3659 30.2816L43.4829 29.3196L42.525 29.1725L42.3732 30.1609ZM42.0982 32.4226L42.9899 32.8753L43.0696 32.7182L43.0909 32.5433L42.0982 32.4226ZM34.5626 32.2581C36.0635 32.2794 37.5075 31.8591 38.5426 31.4595C39.0672 31.257 39.5035 31.0532 39.8107 30.8989C39.9646 30.8216 40.087 30.7563 40.1727 30.7093C40.2156 30.6857 40.2495 30.6667 40.2735 30.6529C40.2856 30.6461 40.2952 30.6405 40.3023 30.6364C40.3059 30.6343 40.3088 30.6326 40.3111 30.6313C40.3123 30.6306 40.3133 30.63 40.3141 30.6295C40.3145 30.6293 40.3149 30.6291 40.3152 30.6289C40.3154 30.6288 40.3156 30.6286 40.3157 30.6286C40.3159 30.6285 40.3161 30.6283 39.808 29.767C39.2999 28.9057 39.3001 28.9056 39.3003 28.9055C39.3003 28.9055 39.3005 28.9054 39.3006 28.9054C39.3008 28.9053 39.3009 28.9052 39.301 28.9051C39.3012 28.905 39.3013 28.905 39.3011 28.905C39.3009 28.9052 39.3001 28.9056 39.2987 28.9065C39.2959 28.9081 39.2906 28.9111 39.283 28.9155C39.2679 28.9241 39.2434 28.9379 39.2103 28.956C39.1441 28.9924 39.0434 29.0462 38.9131 29.1117C38.652 29.2428 38.2755 29.4188 37.8223 29.5937C36.9019 29.9491 35.7302 30.2744 34.5909 30.2583L34.5626 32.2581ZM39.6563 30.7555L42.2214 31.1493L42.525 29.1725L39.9598 28.7786L39.6563 30.7555ZM41.3805 30.0402L41.1055 32.3019L43.0909 32.5433L43.3659 30.2816L41.3805 30.0402ZM41.2065 31.9699C39.7852 34.7695 37.5386 36.1483 35.7494 36.8298L36.4613 38.6988C38.5668 37.8968 41.2808 36.2416 42.9899 32.8753L41.2065 31.9699Z" fill="black" mask="url(#path-9-inside-1_15_5)"/>
<mask id="path-11-inside-2_15_5" fill="white">
<path d="M36.1054 37.9081C36.0509 37.9081 35.9991 37.8707 35.9804 37.8113C35.9562 37.7375 35.992 37.656 36.0616 37.6283C37.8902 36.9315 40.3964 35.4557 41.9705 32.3766L42.225 30.2817L39.833 29.9156C39.492 30.1072 37.0437 31.4345 34.5768 31.402C34.5036 31.4 34.4446 31.3358 34.4446 31.2572C34.4446 31.1787 34.5009 31.1125 34.5795 31.1154C37.1473 31.148 39.7187 29.6568 39.7446 29.6405C39.7705 29.6262 39.8 29.6195 39.8277 29.6252L42.3929 30.0191C42.4652 30.0306 42.5161 30.1015 42.5062 30.1791L42.2321 32.4408C42.2295 32.458 42.225 32.4753 42.217 32.4906C40.6045 35.6656 38.0286 37.1845 36.1518 37.8995C36.1357 37.9052 36.1205 37.9081 36.1054 37.9081Z"/>
</mask>
<path d="M36.1054 37.9081C36.0509 37.9081 35.9991 37.8707 35.9804 37.8113C35.9562 37.7375 35.992 37.656 36.0616 37.6283C37.8902 36.9315 40.3964 35.4557 41.9705 32.3766L42.225 30.2817L39.833 29.9156C39.492 30.1072 37.0437 31.4345 34.5768 31.402C34.5036 31.4 34.4446 31.3358 34.4446 31.2572C34.4446 31.1787 34.5009 31.1125 34.5795 31.1154C37.1473 31.148 39.7187 29.6568 39.7446 29.6405C39.7705 29.6262 39.8 29.6195 39.8277 29.6252L42.3929 30.0191C42.4652 30.0306 42.5161 30.1015 42.5062 30.1791L42.2321 32.4408C42.2295 32.458 42.225 32.4753 42.217 32.4906C40.6045 35.6656 38.0286 37.1845 36.1518 37.8995C36.1357 37.9052 36.1205 37.9081 36.1054 37.9081Z" fill="#FCDA00"/>
<path d="M35.9804 37.8113L36.934 37.5103L36.9309 37.5008L35.9804 37.8113ZM36.0616 37.6283L35.7056 36.6938L35.6982 36.6966L35.691 36.6995L36.0616 37.6283ZM41.9705 32.3766L42.8609 32.8318L42.9418 32.6736L42.9632 32.4972L41.9705 32.3766ZM42.225 30.2817L43.2177 30.4022L43.3346 29.4398L42.3763 29.2932L42.225 30.2817ZM39.833 29.9156L39.9843 28.9271L39.6436 28.8749L39.3431 29.0438L39.833 29.9156ZM34.5768 31.402L34.5506 32.4017L34.5636 32.4019L34.5768 31.402ZM34.5795 31.1154L34.5429 32.1147L34.5548 32.1152L34.5668 32.1153L34.5795 31.1154ZM39.7446 29.6405L39.2593 28.7662L39.2353 28.7795L39.2121 28.7941L39.7446 29.6405ZM39.8277 29.6252L39.6243 30.6043L39.65 30.6096L39.6759 30.6136L39.8277 29.6252ZM42.3929 30.0191L42.5499 29.0315L42.5446 29.0307L42.3929 30.0191ZM42.5062 30.1791L41.5141 30.0536L41.5135 30.0588L42.5062 30.1791ZM42.2321 32.4408L43.2203 32.5942L43.2229 32.5777L43.2249 32.5611L42.2321 32.4408ZM42.217 32.4906L41.3312 32.0264L41.3254 32.0378L42.217 32.4906ZM36.1518 37.8995L36.4887 38.841L36.4982 38.8376L36.5078 38.834L36.1518 37.8995ZM36.1054 36.9081C36.5144 36.9081 36.8298 37.1802 36.934 37.5104L35.0267 38.1122C35.1684 38.5613 35.5874 38.9081 36.1054 38.9081V36.9081ZM36.9309 37.5008C37.0584 37.8909 36.8883 38.375 36.4322 38.557L35.691 36.6995C35.0956 36.937 34.8541 37.5841 35.0298 38.1218L36.9309 37.5008ZM36.4176 38.5627C38.3963 37.8088 41.14 36.1981 42.8609 32.8318L41.0801 31.9214C39.6528 34.7134 37.3841 36.0542 35.7056 36.6938L36.4176 38.5627ZM42.9632 32.4972L43.2177 30.4022L41.2323 30.1611L40.9778 32.256L42.9632 32.4972ZM42.3763 29.2932L39.9843 28.9271L39.6817 30.9041L42.0737 31.2702L42.3763 29.2932ZM39.3431 29.0438C39.0118 29.23 36.7681 30.4308 34.59 30.402L34.5636 32.4019C37.3194 32.4383 39.9722 30.9845 40.3229 30.7874L39.3431 29.0438ZM34.603 30.4023C35.1293 30.4161 35.4446 30.8533 35.4446 31.2572H33.4446C33.4446 31.8184 33.8778 32.384 34.5506 32.4016L34.603 30.4023ZM35.4446 31.2572C35.4446 31.6256 35.1434 32.1367 34.5429 32.1147L34.616 30.1161C33.8584 30.0884 33.4446 30.7318 33.4446 31.2572H35.4446ZM34.5668 32.1153C36.0306 32.1339 37.4508 31.722 38.4733 31.33C39.498 30.9372 40.2062 30.5316 40.2772 30.4869L39.2121 28.7941C39.2572 28.7657 38.6667 29.1139 37.7573 29.4626C36.8457 29.8121 35.6961 30.1295 34.5922 30.1155L34.5668 32.1153ZM40.23 30.5148C40.1022 30.5858 39.8871 30.6589 39.6243 30.6043L40.0311 28.6461C39.7129 28.58 39.4389 28.6665 39.2593 28.7662L40.23 30.5148ZM39.6759 30.6136L42.2411 31.0075L42.5446 29.0307L39.9794 28.6368L39.6759 30.6136ZM42.2358 31.0067C41.7291 30.9261 41.4622 30.4643 41.5142 30.0536L43.4983 30.3046C43.5699 29.7387 43.2013 29.1351 42.5499 29.0315L42.2358 31.0067ZM41.5135 30.0588L41.2394 32.3205L43.2249 32.5611L43.499 30.2994L41.5135 30.0588ZM41.244 32.2873C41.2505 32.2454 41.2694 32.1444 41.3312 32.0264L43.1027 32.9548C43.1806 32.8061 43.2084 32.6707 43.2203 32.5942L41.244 32.2873ZM41.3254 32.0378C39.8593 34.9244 37.5215 36.3076 35.7958 36.965L36.5078 38.834C38.5356 38.0615 41.3496 36.4068 43.1086 32.9435L41.3254 32.0378ZM35.8149 36.9579C35.8901 36.931 35.9891 36.9081 36.1054 36.9081V38.9081C36.252 38.9081 36.3813 38.8794 36.4887 38.841L35.8149 36.9579Z" fill="black" mask="url(#path-11-inside-2_15_5)"/>
<path d="M44.8248 28.1142C44.9074 28.0348 44.9188 27.8781 44.8409 27.7842L44.8386 27.7814L44.8386 27.7814C44.8081 27.744 44.7679 27.7267 44.7219 27.7274L44.7143 27.7275V27.7275H44.692H43.1912L44.3921 26.8274C44.5644 26.6982 44.7736 26.5198 44.9298 26.3284C45.0992 26.1209 45.1345 25.9864 45.1295 25.927L45.6277 25.8848L45.1295 25.9273C45.1232 25.8536 45.1011 25.8273 45.0929 25.8191C45.084 25.81 45.0559 25.7867 44.9817 25.7781C44.8191 25.7591 44.4922 25.8237 44.0544 26.1504L43.3154 25.5122C43.5455 25.0859 43.369 24.8484 43.2964 24.8027C43.212 24.7505 43.1807 24.7626 43.1596 24.7714C43.1094 24.7923 42.9744 24.8825 42.8033 25.208L42.8016 25.2113L42.3607 24.9754L42.8015 25.2113L42.8015 25.2113L42.8015 25.2115L42.8012 25.2119L42.8002 25.2138L42.7963 25.2211L42.7816 25.2487L42.7288 25.3473L42.5682 25.6474C42.5048 25.766 42.4438 25.88 42.4003 25.9613C42.3609 26.0351 42.3358 26.082 42.3362 26.0812L42.2818 26.1896L42.1839 26.261C42.1839 26.261 42.1836 26.2613 42.1828 26.2618L42.1796 26.2642L42.1676 26.2734C42.1572 26.2815 42.1423 26.2933 42.1237 26.3088C42.0864 26.3399 42.0344 26.3852 41.9737 26.4441C41.8516 26.5624 41.6979 26.7317 41.5565 26.9449C41.2748 27.3696 41.0534 27.948 41.1948 28.6573L41.2427 28.8974L41.0823 29.0825L40.7045 28.755C41.0823 29.0825 41.0822 29.0826 41.0822 29.0827L41.0821 29.0828L41.0818 29.0831L41.0811 29.0839L41.0794 29.0858L41.0746 29.0912L41.0593 29.1083C41.0466 29.1223 41.0287 29.1415 41.006 29.1653C40.9604 29.2128 40.8949 29.2785 40.8102 29.357C40.6497 29.5057 40.4192 29.7014 40.1243 29.9054L41.1405 31.4456L41.1406 31.4457L41.9506 32.6729C41.9985 32.6077 42.0375 32.5523 42.0673 32.5091C42.0919 32.4733 42.1101 32.4459 42.1217 32.4281L42.1342 32.4088L42.1366 32.405L42.1367 32.4049L42.1367 32.4049L42.1367 32.4049L42.1368 32.4048L42.1369 32.4046L42.137 32.4044L42.3933 31.994L42.8092 32.2359C42.8097 32.2362 42.8106 32.2367 42.8116 32.2372C42.8163 32.2397 42.8257 32.2446 42.8394 32.2512C42.867 32.2644 42.9115 32.2842 42.9702 32.3056C43.0886 32.3485 43.2596 32.3955 43.4638 32.4098C43.8557 32.4371 44.4028 32.348 44.9782 31.7963L44.996 31.7778L45.0314 31.7413L45.0626 31.72L46.5934 30.2609L46.5944 30.2599C46.6764 30.1822 46.6891 30.0243 46.6111 29.9295C46.5781 29.8898 46.5391 29.8738 46.5045 29.8715C46.4703 29.8693 46.4328 29.8798 46.3982 29.9127L46.0536 29.5505L45.7089 29.1882C45.7922 29.109 45.804 28.9512 45.7261 28.8568L45.7254 28.856C45.6906 28.8136 45.6479 28.7975 45.6075 28.7978C45.5761 28.7986 45.5446 28.8095 45.5144 28.8384L45.1687 28.4771L45.1687 28.4771L44.8241 28.1149C44.8243 28.1146 44.8246 28.1144 44.8248 28.1142ZM44.8248 28.1142C44.8242 28.1147 44.8237 28.1153 44.8231 28.1158L45.5134 28.8394C45.5463 28.808 45.5771 28.7752 45.6058 28.741L44.8248 28.1142ZM45.8299 28.337C45.7823 28.4818 45.7079 28.6188 45.6073 28.7392L45.8299 28.337ZM45.8299 28.337C45.9354 28.3757 46.033 28.4429 46.1116 28.5385C46.1973 28.6422 46.2496 28.7658 46.2694 28.8938L45.8299 28.337Z" fill="#22A454" stroke="black"/>
<mask id="path-14-inside-3_15_5" fill="white">
<path d="M47.0973 29.5179C46.9563 29.3473 46.7598 29.2448 46.5473 29.2313C46.4937 29.2285 46.4393 29.2304 46.3875 29.239C46.4 29.1844 46.4098 29.1269 46.4125 29.0684C46.4259 28.8375 46.3554 28.617 46.2143 28.4474C46.0589 28.2596 45.833 28.1522 45.5991 28.158C45.5661 28.158 45.5339 28.1609 45.5018 28.1666C45.5688 27.8973 45.5125 27.5964 45.3286 27.3731C45.2446 27.2706 45.1393 27.193 45.0223 27.1441C45.425 26.7962 45.8018 26.341 45.7625 25.8733C45.7366 25.5772 45.5902 25.3462 45.3491 25.2265C45.008 25.0559 44.5321 25.1249 44.0295 25.4066C44.1438 24.891 43.942 24.4531 43.6286 24.2585C43.4179 24.1263 43.2063 24.0908 42.9991 24.1522C42.7205 24.2336 42.4679 24.4885 42.2482 24.9083C41.9295 25.5025 41.825 25.697 41.7911 25.7631C41.5804 25.926 40.2696 27.0185 40.5634 28.7129C40.4554 28.826 40.1679 29.1115 39.7277 29.4086C39.6036 29.493 39.5161 29.631 39.4866 29.7872C39.458 29.9424 39.4893 30.1005 39.5741 30.2309L41.5259 33.1835C41.6187 33.3253 41.7652 33.4097 41.9268 33.4173C41.933 33.4173 41.9402 33.4173 41.9464 33.4173C42.1009 33.4173 42.2464 33.3445 42.3464 33.2151C42.4661 33.0608 42.5545 32.9343 42.6089 32.8548C42.9768 33.0158 44.2161 33.426 45.425 32.2606L45.442 32.2434C45.4527 32.2357 45.4652 32.2271 45.4759 32.2175L47.0304 30.7359C47.1911 30.5845 47.2857 30.3737 47.2982 30.1446C47.3089 29.9098 47.2384 29.6885 47.0973 29.5179ZM46.8509 30.5165L45.2946 31.998C45.292 32 45.2786 32.0095 45.2768 32.0115C45.2732 32.0143 45.2688 32.0172 45.2661 32.021L45.2437 32.044C43.9536 33.287 42.6786 32.575 42.625 32.5453C42.5652 32.5098 42.4893 32.5309 42.45 32.5913C42.4491 32.5922 42.3411 32.7676 42.1384 33.0273C42.0875 33.0934 42.0134 33.1298 41.933 33.127C41.8545 33.1241 41.7839 33.0819 41.7384 33.0139L39.7875 30.0603C39.7446 29.9961 39.7286 29.9156 39.7437 29.838C39.758 29.7584 39.8009 29.6913 39.8652 29.6482C40.4607 29.2428 40.7857 28.8691 40.8009 28.8537C40.8295 28.8192 40.842 28.7723 40.8339 28.7263C40.5036 27.0674 41.9027 26.0209 41.9625 25.9759C41.9804 25.9634 41.9946 25.9462 42.0054 25.926C42.0241 25.8906 42.4759 25.0482 42.4759 25.0472C42.6607 24.6946 42.8598 24.4857 43.0661 24.4262C43.1071 24.4147 43.1491 24.4071 43.1911 24.4071C43.2884 24.4071 43.3902 24.4387 43.4911 24.5029C43.7714 24.6783 43.9179 25.1421 43.6455 25.6625L42.3768 26.9457C42.3241 26.9994 42.3214 27.0895 42.3714 27.147C42.3982 27.1776 42.433 27.192 42.4688 27.192C42.5027 27.192 42.5339 27.1786 42.5607 27.1527L43.8375 25.8618C44.4786 25.3875 44.9795 25.3549 45.2357 25.4842C45.3902 25.5609 45.4795 25.7047 45.4964 25.8973C45.525 26.227 45.2054 26.6687 44.617 27.1096C44.5696 27.146 44.5491 27.2112 44.567 27.2715C44.5857 27.3319 44.633 27.3674 44.6955 27.3702H44.7188C44.7214 27.3702 44.725 27.3702 44.7277 27.3702C44.8839 27.3702 45.0295 27.4392 45.1277 27.561C45.3223 27.7967 45.3027 28.1609 45.0813 28.3707C45.0268 28.4244 45.0214 28.5145 45.0705 28.573C45.1196 28.6314 45.2036 28.6372 45.258 28.5845C45.3527 28.4944 45.4759 28.4445 45.6018 28.4417C45.7607 28.4369 45.9089 28.5087 46.0125 28.6343C46.1071 28.7493 46.1536 28.8969 46.1455 29.0492C46.1366 29.2026 46.0741 29.3435 45.967 29.445C45.9384 29.4738 45.9223 29.5121 45.9223 29.5524C45.9223 29.5869 45.933 29.6195 45.9554 29.6463C46.0045 29.7057 46.0884 29.7105 46.1429 29.6578C46.25 29.5562 46.3875 29.5064 46.5295 29.515C46.6723 29.5236 46.8027 29.5926 46.8973 29.7057C46.992 29.8197 47.0384 29.9673 47.0304 30.1207C47.0214 30.2769 46.9571 30.4168 46.8509 30.5165ZM36.3973 38.4189C36.4116 38.4793 36.3884 38.5415 36.3384 38.5751C36.2759 38.6173 34.7625 39.6197 32.3857 39.7481C32.233 39.7567 32.0723 39.7615 31.9071 39.7615C30.5563 39.7615 28.8393 39.4539 26.9473 38.393L18.7375 45.4626C18.7143 45.4847 18.683 45.4943 18.6554 45.4943C18.617 45.4943 18.5777 45.476 18.5509 45.4415C18.5045 45.3802 18.5143 45.2901 18.5714 45.2393L26.6929 38.2473C26.4205 38.0854 26.1438 37.909 25.8652 37.7145L18.0446 44.4478C18.0205 44.4698 17.9902 44.4794 17.9625 44.4794C17.9232 44.4794 17.8848 44.4612 17.858 44.4248C17.8116 44.3634 17.8214 44.2733 17.8786 44.2235L25.6321 37.5468C24.8732 36.9958 24.0938 36.3192 23.3063 35.4873C23.2545 35.4308 23.2527 35.3407 23.3054 35.2842C23.3571 35.2276 23.4411 35.2267 23.4929 35.2823C26.9607 38.9402 30.2295 39.5756 32.3589 39.4625C34.3634 39.3561 35.7679 38.5904 36.1152 38.3825L34.4473 31.2918C34.4304 31.2141 34.4732 31.1365 34.5438 31.1183C34.6152 31.0991 34.6875 31.1451 34.7045 31.2228L36.3973 38.4189ZM31.1759 44.5608C31.2321 44.6126 31.2375 44.7046 31.1875 44.763C31.1616 44.7956 31.125 44.8119 31.0875 44.8119C31.0571 44.8119 31.025 44.8004 31 44.7755L28.2438 42.1803C28.1884 42.1295 28.183 42.0375 28.2321 41.9791C28.2804 41.9187 28.3643 41.913 28.4196 41.9657L31.1759 44.5608Z"/>
</mask>
<path d="M47.0973 29.5179C46.9563 29.3473 46.7598 29.2448 46.5473 29.2313C46.4937 29.2285 46.4393 29.2304 46.3875 29.239C46.4 29.1844 46.4098 29.1269 46.4125 29.0684C46.4259 28.8375 46.3554 28.617 46.2143 28.4474C46.0589 28.2596 45.833 28.1522 45.5991 28.158C45.5661 28.158 45.5339 28.1609 45.5018 28.1666C45.5688 27.8973 45.5125 27.5964 45.3286 27.3731C45.2446 27.2706 45.1393 27.193 45.0223 27.1441C45.425 26.7962 45.8018 26.341 45.7625 25.8733C45.7366 25.5772 45.5902 25.3462 45.3491 25.2265C45.008 25.0559 44.5321 25.1249 44.0295 25.4066C44.1438 24.891 43.942 24.4531 43.6286 24.2585C43.4179 24.1263 43.2063 24.0908 42.9991 24.1522C42.7205 24.2336 42.4679 24.4885 42.2482 24.9083C41.9295 25.5025 41.825 25.697 41.7911 25.7631C41.5804 25.926 40.2696 27.0185 40.5634 28.7129C40.4554 28.826 40.1679 29.1115 39.7277 29.4086C39.6036 29.493 39.5161 29.631 39.4866 29.7872C39.458 29.9424 39.4893 30.1005 39.5741 30.2309L41.5259 33.1835C41.6187 33.3253 41.7652 33.4097 41.9268 33.4173C41.933 33.4173 41.9402 33.4173 41.9464 33.4173C42.1009 33.4173 42.2464 33.3445 42.3464 33.2151C42.4661 33.0608 42.5545 32.9343 42.6089 32.8548C42.9768 33.0158 44.2161 33.426 45.425 32.2606L45.442 32.2434C45.4527 32.2357 45.4652 32.2271 45.4759 32.2175L47.0304 30.7359C47.1911 30.5845 47.2857 30.3737 47.2982 30.1446C47.3089 29.9098 47.2384 29.6885 47.0973 29.5179ZM46.8509 30.5165L45.2946 31.998C45.292 32 45.2786 32.0095 45.2768 32.0115C45.2732 32.0143 45.2688 32.0172 45.2661 32.021L45.2437 32.044C43.9536 33.287 42.6786 32.575 42.625 32.5453C42.5652 32.5098 42.4893 32.5309 42.45 32.5913C42.4491 32.5922 42.3411 32.7676 42.1384 33.0273C42.0875 33.0934 42.0134 33.1298 41.933 33.127C41.8545 33.1241 41.7839 33.0819 41.7384 33.0139L39.7875 30.0603C39.7446 29.9961 39.7286 29.9156 39.7437 29.838C39.758 29.7584 39.8009 29.6913 39.8652 29.6482C40.4607 29.2428 40.7857 28.8691 40.8009 28.8537C40.8295 28.8192 40.842 28.7723 40.8339 28.7263C40.5036 27.0674 41.9027 26.0209 41.9625 25.9759C41.9804 25.9634 41.9946 25.9462 42.0054 25.926C42.0241 25.8906 42.4759 25.0482 42.4759 25.0472C42.6607 24.6946 42.8598 24.4857 43.0661 24.4262C43.1071 24.4147 43.1491 24.4071 43.1911 24.4071C43.2884 24.4071 43.3902 24.4387 43.4911 24.5029C43.7714 24.6783 43.9179 25.1421 43.6455 25.6625L42.3768 26.9457C42.3241 26.9994 42.3214 27.0895 42.3714 27.147C42.3982 27.1776 42.433 27.192 42.4688 27.192C42.5027 27.192 42.5339 27.1786 42.5607 27.1527L43.8375 25.8618C44.4786 25.3875 44.9795 25.3549 45.2357 25.4842C45.3902 25.5609 45.4795 25.7047 45.4964 25.8973C45.525 26.227 45.2054 26.6687 44.617 27.1096C44.5696 27.146 44.5491 27.2112 44.567 27.2715C44.5857 27.3319 44.633 27.3674 44.6955 27.3702H44.7188C44.7214 27.3702 44.725 27.3702 44.7277 27.3702C44.8839 27.3702 45.0295 27.4392 45.1277 27.561C45.3223 27.7967 45.3027 28.1609 45.0813 28.3707C45.0268 28.4244 45.0214 28.5145 45.0705 28.573C45.1196 28.6314 45.2036 28.6372 45.258 28.5845C45.3527 28.4944 45.4759 28.4445 45.6018 28.4417C45.7607 28.4369 45.9089 28.5087 46.0125 28.6343C46.1071 28.7493 46.1536 28.8969 46.1455 29.0492C46.1366 29.2026 46.0741 29.3435 45.967 29.445C45.9384 29.4738 45.9223 29.5121 45.9223 29.5524C45.9223 29.5869 45.933 29.6195 45.9554 29.6463C46.0045 29.7057 46.0884 29.7105 46.1429 29.6578C46.25 29.5562 46.3875 29.5064 46.5295 29.515C46.6723 29.5236 46.8027 29.5926 46.8973 29.7057C46.992 29.8197 47.0384 29.9673 47.0304 30.1207C47.0214 30.2769 46.9571 30.4168 46.8509 30.5165ZM36.3973 38.4189C36.4116 38.4793 36.3884 38.5415 36.3384 38.5751C36.2759 38.6173 34.7625 39.6197 32.3857 39.7481C32.233 39.7567 32.0723 39.7615 31.9071 39.7615C30.5563 39.7615 28.8393 39.4539 26.9473 38.393L18.7375 45.4626C18.7143 45.4847 18.683 45.4943 18.6554 45.4943C18.617 45.4943 18.5777 45.476 18.5509 45.4415C18.5045 45.3802 18.5143 45.2901 18.5714 45.2393L26.6929 38.2473C26.4205 38.0854 26.1438 37.909 25.8652 37.7145L18.0446 44.4478C18.0205 44.4698 17.9902 44.4794 17.9625 44.4794C17.9232 44.4794 17.8848 44.4612 17.858 44.4248C17.8116 44.3634 17.8214 44.2733 17.8786 44.2235L25.6321 37.5468C24.8732 36.9958 24.0938 36.3192 23.3063 35.4873C23.2545 35.4308 23.2527 35.3407 23.3054 35.2842C23.3571 35.2276 23.4411 35.2267 23.4929 35.2823C26.9607 38.9402 30.2295 39.5756 32.3589 39.4625C34.3634 39.3561 35.7679 38.5904 36.1152 38.3825L34.4473 31.2918C34.4304 31.2141 34.4732 31.1365 34.5438 31.1183C34.6152 31.0991 34.6875 31.1451 34.7045 31.2228L36.3973 38.4189ZM31.1759 44.5608C31.2321 44.6126 31.2375 44.7046 31.1875 44.763C31.1616 44.7956 31.125 44.8119 31.0875 44.8119C31.0571 44.8119 31.025 44.8004 31 44.7755L28.2438 42.1803C28.1884 42.1295 28.183 42.0375 28.2321 41.9791C28.2804 41.9187 28.3643 41.913 28.4196 41.9657L31.1759 44.5608Z" fill="#FCDA00" stroke="black" stroke-width="2" mask="url(#path-14-inside-3_15_5)"/>
</g>
<defs>
<clipPath id="clip0_15_5">
<rect width="60" height="46" fill="white" transform="translate(1 11)"/>
</clipPath>
</defs>
</svg>
