<svg width="69" height="67" viewBox="0 0 69 67" fill="none" xmlns="http://www.w3.org/2000/svg">
<path d="M54.3931 30.1744C50.8729 27.8479 47.5769 25.1396 46.5191 21.8716C45.6103 19.0528 46.4822 16.1073 46.0588 13.2372C45.2001 7.2689 38.2216 1.94576 29.6247 0.689591C21.0292 -0.566577 11.4748 2.3618 7.13278 7.5744C4.34729 10.9108 3.64944 14.8843 3.74977 18.7221C3.84862 22.559 4.69548 26.3797 4.74564 30.2246C4.80761 35.1488 3.5624 40.0388 3.41339 44.963C3.26437 49.8872 4.32221 55.0405 8.47684 59.0642C12.4574 62.9182 19.0021 65.3632 25.8183 66.1189C32.6359 66.8746 39.7014 66.0515 46.1207 64.311C52.0546 62.7061 57.6035 60.2872 61.7212 56.9509C65.839 53.6135 68.6495 50.0228 68.1405 45.6765C67.1447 37.1868 57.9148 32.5008 54.3931 30.1744Z" fill="#E8E9DA"/>
<g clip-path="url(#clip0_15_6)">
<path d="M8.80415 58.9042H52.1959V16.0825H8.80415V58.9042Z" stroke="black" stroke-width="0.843953" stroke-miterlimit="10" stroke-linecap="round" stroke-linejoin="round"/>
<path d="M18.5075 20.3546V43.8576H16.0851H15.4184V44.5242V48.2984V48.965H16.0851H18.5075V51.7937L16.1316 54.1376L14.9748 55.2789H16.5998H32.7067H32.9871L33.1832 55.0784L35.0459 53.1746H36.597L35.6208 54.1376L34.4638 55.2789H36.0889H39.178H39.446L39.6395 55.0933L42.2873 52.5537L42.494 52.3555L42.4925 52.0691L42.419 37.5531L42.4156 36.8898H41.7523H36.5328L34.7923 32.7269L34.2993 31.5478L33.6144 32.6268L29.4225 39.2309L29.1906 39.5963L29.4298 39.9568L36.9796 51.3333H35.1899L27.8135 40.5904L26.5972 38.8191V40.9678V46.9778H17.4135V45.7714H24.3955H25.0621V45.1047V38.6909L30.4036 30.1438L31.041 29.1238H29.8383H25.2052H24.8312L24.6363 29.4429L21.9587 33.825L20.8417 33.1852L24.1769 27.844H30.7453L30.7463 27.8498L30.8127 27.959L31.0199 28.2998L31.1553 28.5671L31.1826 28.621L31.2192 28.6691L31.4398 28.9594L31.4685 28.9972L31.5023 29.0305L32.0178 29.5393L32.0717 29.5925L32.1362 29.6322L32.7244 29.9951L32.764 30.0195L32.8066 30.0382L33.4683 30.3284L33.5353 30.3578L33.607 30.3719L34.3423 30.5171L34.3738 30.5233L34.4059 30.5265L35.1411 30.599L35.1738 30.6023H35.2066H35.4836L37.3791 35.5448L37.5432 35.9728H38.0015H41.7523H42.419V35.3061V20.3546V19.688H41.7523H19.1741H18.5075V20.3546ZM34.0577 23.6658L34.5145 23.5531L35.0596 23.4933L35.6047 23.5531L36.0624 23.6659L36.4427 23.8803L36.8665 24.2388L37.16 24.5864L37.3781 24.963L37.4912 25.4094L37.5513 25.9437L37.4912 26.4771L37.3781 26.9236L37.1475 27.3219L36.8649 27.7123L36.4684 27.9918L36.0624 28.2208L35.6047 28.3335L35.0596 28.3933L34.5145 28.3335L34.0577 28.2208L33.6733 28.004L33.3204 27.7138L32.9574 27.2958L32.7409 26.9232L32.6279 26.4771L32.5679 25.9437L32.6279 25.4094L32.7409 24.9634L32.9443 24.6133L33.6999 23.8676L34.0577 23.6658ZM10.5011 17.7551H50.4989V57.2118H10.5011V17.7551Z" fill="#12A84D" stroke="black" stroke-width="1.33333"/>
</g>
<defs>
<clipPath id="clip0_15_6">
<rect width="61" height="43" fill="white" transform="translate(0 16)"/>
</clipPath>
</defs>
</svg>
