<svg width="69" height="67" viewBox="0 0 69 67" fill="none" xmlns="http://www.w3.org/2000/svg">
<path d="M54.3931 30.1744C50.8729 27.8479 47.5769 25.1396 46.5191 21.8716C45.6103 19.0528 46.4822 16.1073 46.0588 13.2372C45.2001 7.2689 38.2216 1.94576 29.6247 0.689591C21.0292 -0.566577 11.4748 2.3618 7.13278 7.5744C4.34729 10.9108 3.64944 14.8843 3.74977 18.7221C3.84862 22.559 4.69548 26.3797 4.74564 30.2246C4.80761 35.1488 3.5624 40.0388 3.41339 44.963C3.26437 49.8872 4.32221 55.0405 8.47684 59.0642C12.4574 62.9182 19.0021 65.3632 25.8183 66.1189C32.6359 66.8746 39.7014 66.0515 46.1207 64.311C52.0546 62.7061 57.6035 60.2872 61.7212 56.9509C65.839 53.6135 68.6495 50.0228 68.1405 45.6765C67.1447 37.1868 57.9148 32.5008 54.3931 30.1744Z" fill="#E8E9DA"/>
<path d="M30.4076 31.5181V55.2318L12.69 48.2197V24.5059L30.4076 31.5181Z" fill="#12A84D" stroke="black"/>
<path d="M23.5396 52.514L19.2875 50.8311V27.1182L23.5396 28.8003V52.514Z" fill="#FCDA00" stroke="black"/>
<path d="M13.5487 23.7703L30.9076 16.9001L48.2656 23.7703L30.9076 30.6405L13.5487 23.7703Z" fill="#3FB93B" stroke="black"/>
<path d="M20.1534 26.3853L37.5321 19.5881L40.4235 20.9257L24.0324 27.9198L20.1534 26.3853Z" fill="#F8A716" stroke="black"/>
<path d="M22.81 20.715L26.3059 19.5777L42.1055 26.21L38.4591 27.6528L22.81 20.715Z" fill="#F8A716" stroke="black"/>
<path d="M49.1242 24.5059V48.2197L31.4076 55.2318V31.5181L49.1242 24.5059Z" fill="#1A973B" stroke="black"/>
<path d="M42.9298 26.9592V50.672L38.9481 52.2468V28.5348L42.9298 26.9592Z" fill="#FCDA00" stroke="black"/>
<path d="M29.6114 22.214C29.6319 22.2447 29.6505 22.273 29.6673 22.2987L29.2719 23.7395C29.2487 23.7425 29.2244 23.7456 29.199 23.7489C28.9453 23.781 28.581 23.8237 28.1414 23.8654C27.2606 23.9491 26.0844 24.0282 24.8916 24.0129C23.6912 23.9975 22.5088 23.8865 21.5994 23.6066C20.7265 23.338 20.2493 22.9626 20.1004 22.5095C20.2001 22.0272 20.26 21.5782 20.3164 21.1555C20.348 20.919 20.3784 20.6908 20.4141 20.4694C20.5154 19.8422 20.6702 19.1629 21.0312 18.254C23.5171 17.3149 25.6429 18.2726 27.2175 19.5584C28.0237 20.2168 28.6665 20.9485 29.1087 21.5184C29.3292 21.8025 29.4982 22.0444 29.6114 22.214Z" fill="#F79A18" stroke="black"/>
<path d="M30.1446 21.5579C30.1956 21.6658 30.2379 21.7579 30.2714 21.8316L29.6129 23.168C29.5019 23.0056 29.3733 22.8246 29.2281 22.6322C28.6767 21.9013 27.8716 20.9832 26.8789 20.29C25.8857 19.5963 24.6616 19.0992 23.3002 19.3003C22.1952 19.4635 21.0732 20.0757 19.9645 21.2776C19.8687 19.439 20.0837 17.1079 20.4999 15.5082C21.7833 14.3894 22.9626 14.2263 24.0267 14.5374C25.1678 14.8711 26.2559 15.7737 27.2185 16.8997C28.1732 18.0164 28.9603 19.3002 29.5112 20.3129C29.7858 20.8176 29.9997 21.2513 30.1446 21.5579Z" fill="#FCDA00" stroke="black"/>
<path d="M33.4102 23.7395L33.0147 22.2987C33.0315 22.273 33.0502 22.2447 33.0706 22.214C33.1838 22.0444 33.3529 21.8025 33.5734 21.5184C34.0156 20.9485 34.6583 20.2168 35.4646 19.5584C37.0391 18.2726 39.165 17.3149 41.6509 18.254C42.0118 19.1629 42.1666 19.8422 42.2679 20.4694C42.3036 20.6908 42.3341 20.919 42.3656 21.1555C42.422 21.5782 42.4819 22.0272 42.5816 22.5095C42.4328 22.9626 41.9556 23.338 41.0826 23.6066C40.1732 23.8865 38.9908 23.9975 37.7904 24.0129C36.5976 24.0282 35.4214 23.9491 34.5407 23.8654C34.101 23.8237 33.7368 23.781 33.483 23.7489C33.4576 23.7456 33.4333 23.7425 33.4102 23.7395Z" fill="#F79A18" stroke="black"/>
<path d="M33.4539 22.6322C33.3088 22.8246 33.1801 23.0056 33.0691 23.168L32.4107 21.8316C32.4441 21.7579 32.4865 21.6658 32.5375 21.5579C32.6824 21.2513 32.8963 20.8176 33.1709 20.3129C33.7218 19.3002 34.5089 18.0164 35.4636 16.8997C36.4262 15.7737 37.5143 14.8711 38.6553 14.5374C39.7195 14.2263 40.8988 14.3894 42.1822 15.5082C42.5985 17.1084 42.8146 19.4398 42.7181 21.2782C41.6093 20.0759 40.4871 19.4635 39.3818 19.3003C38.0205 19.0992 36.7964 19.5963 35.8031 20.29C34.8105 20.9832 34.0053 21.9013 33.4539 22.6322Z" fill="#FCDA00" stroke="black"/>
<path d="M29.4477 19.86L29.448 19.8597C29.5073 19.8002 29.7062 19.6971 30.1017 19.6198C30.4685 19.5481 30.9194 19.5142 31.3788 19.5193C31.8378 19.5244 32.2862 19.5682 32.6469 19.6429C32.8274 19.6803 32.9762 19.7234 33.089 19.7685C33.2088 19.8163 33.256 19.8536 33.2645 19.862L33.2653 19.8628C33.2994 19.8964 33.3851 20.0486 33.4478 20.3992C33.505 20.7196 33.5285 21.1189 33.5194 21.5354C33.5104 21.9503 33.4695 22.3655 33.4053 22.7142C33.3397 23.071 33.2595 23.3021 33.1987 23.4038C33.1945 23.407 33.1642 23.4352 33.0781 23.477C32.9693 23.5299 32.8147 23.5837 32.6184 23.632C32.2273 23.7283 31.7279 23.7893 31.2292 23.8011C30.7272 23.813 30.2594 23.7742 29.9243 23.689C29.7551 23.646 29.6485 23.5982 29.5918 23.5602C29.587 23.5571 29.583 23.5542 29.5796 23.5517C29.5647 23.4629 29.5474 23.3638 29.5286 23.2564C29.4433 22.7686 29.328 22.1097 29.2764 21.464C29.2441 21.0588 29.2394 20.6844 29.2775 20.3821C29.318 20.0609 29.3961 19.9117 29.4477 19.86ZM29.5628 23.5376C29.5629 23.5376 29.5633 23.538 29.564 23.5388C29.5631 23.538 29.5628 23.5376 29.5628 23.5376Z" fill="#FDDD0F" stroke="black"/>
</svg>
