<svg width="67" height="67" viewBox="0 0 67 67" fill="none" xmlns="http://www.w3.org/2000/svg">
<path d="M52.3931 30.1744C48.8729 27.8479 45.5769 25.1396 44.5191 21.8716C43.6103 19.0528 44.4822 16.1073 44.0588 13.2372C43.2001 7.2689 36.2216 1.94576 27.6247 0.689591C19.0292 -0.566577 9.47477 2.3618 5.13278 7.5744C2.34729 10.9108 1.64944 14.8843 1.74977 18.7221C1.84862 22.559 2.69548 26.3797 2.74564 30.2246C2.80761 35.1488 1.5624 40.0388 1.41339 44.963C1.26437 49.8872 2.32221 55.0405 6.47684 59.0642C10.4574 62.9182 17.0021 65.3632 23.8183 66.1189C30.6359 66.8746 37.7014 66.0515 44.1207 64.311C50.0546 62.7061 55.6035 60.2872 59.7212 56.9509C63.839 53.6135 66.6495 50.0228 66.1405 45.6765C65.1447 37.1868 55.9148 32.5008 52.3931 30.1744Z" fill="#E8E9DA"/>
<path d="M11.4074 13.2811H17.8091V22.8525H11.4074V13.2811Z" fill="#FCDA00" stroke="black"/>
<path d="M50.8979 33.0057C50.8979 38.8477 46.419 43.5371 40.949 43.5371C35.4798 43.5371 31 38.8476 31 33.0057C31 27.1629 35.4799 22.4734 40.949 22.4734C46.419 22.4734 50.8979 27.1629 50.8979 33.0057Z" fill="#FCDA00" stroke="black"/>
<path d="M41.7552 32.0858V32.5858H42.2552H45.7382C46.399 32.5858 46.9801 33.1592 46.9801 33.9248C46.9801 34.6904 46.399 35.2639 45.7382 35.2639H41.3847C40.2436 35.2639 39.2722 34.2783 39.2722 33.0058V28.4086C39.2722 27.6442 39.8531 27.0706 40.5141 27.0706C41.1741 27.0706 41.7552 27.644 41.7552 28.4086V32.0858Z" fill="#12A84D" stroke="black"/>
<path d="M17.5029 24.2315V24.7315V54.8031C17.5029 54.9807 17.5919 55.1091 17.7028 55.1745C17.8113 55.2384 17.9383 55.2434 18.0572 55.166L18.0579 55.1655C18.5782 54.8282 18.9997 54.5576 19.3593 54.3642C19.7208 54.1697 20.0558 54.0327 20.4062 53.9879L20.4113 53.9873L20.4276 53.9854L20.4285 53.9853C20.8275 53.9392 21.1927 54.019 21.5821 54.1706C21.951 54.3143 22.3788 54.5383 22.9032 54.8128L22.9353 54.8297L22.9356 54.8298L22.9463 54.8354C23.0731 54.9018 23.2055 54.9713 23.3465 55.0443L23.3471 55.0446C23.8089 55.2848 24.3475 55.2848 24.8093 55.0446C24.9478 54.9724 25.0907 54.8935 25.2437 54.8089L25.2495 54.8057L25.2502 54.8053L25.2975 54.779C25.927 54.4296 26.7508 53.9724 27.6152 53.9724C28.4805 53.9724 29.3043 54.4296 29.9339 54.7791L29.9812 54.8053L29.9818 54.8057L29.9877 54.8089C30.1407 54.8935 30.2835 54.9724 30.422 55.0446L17.5029 24.2315ZM17.5029 24.2315H17.0029M17.5029 24.2315H17.0029M17.0029 24.2315H9.60206C9.42165 24.2315 9.23064 24.0694 9.23064 23.8125V16.2282C9.23064 13.0515 11.6635 10.523 14.6082 10.523H36.5955C41.1033 10.523 44.8034 14.3893 44.8034 19.2163V22.4306V22.7567L45.1019 22.8882C49.0062 24.607 51.7694 28.6871 51.7694 33.4648C51.7694 38.2435 49.0062 42.3236 45.1019 44.0424L44.8034 44.1738V44.5V54.8031C44.8034 54.9807 44.7143 55.1091 44.6034 55.1745C44.4949 55.2384 44.3679 55.2434 44.2491 55.166L44.2483 55.1655C43.7281 54.8282 43.3065 54.5576 42.947 54.3642C42.5855 54.1697 42.2504 54.0327 41.9001 53.9879L41.8949 53.9873L41.8786 53.9854L41.878 53.9853C41.4026 53.9302 40.9567 54.0392 40.5624 54.1964C40.1781 54.3496 39.8091 54.563 39.4867 54.7495L39.4714 54.7583C39.4714 54.7583 39.4714 54.7584 39.4714 54.7584C39.2894 54.8636 39.121 54.9605 38.9593 55.0446L38.9591 55.0446M17.0029 24.2315L38.9591 55.0446M38.9591 55.0446C38.4975 55.2847 37.9591 55.2848 37.4974 55.0449L38.9591 55.0446ZM22.7034 55.2726L22.7145 55.2784C22.841 55.3447 22.9744 55.4147 23.1165 55.4883L22.7034 55.2726ZM41.7806 22.0473L42.3204 22.0904V21.5489V19.2163C42.3204 15.9195 39.7825 13.2001 36.5955 13.2001H19.9775H19.2231L19.517 13.895C19.818 14.6064 19.9858 15.396 19.9858 16.2282V50.7982V51.3161L20.5034 51.2979C21.2753 51.2707 22.0465 51.4716 22.7959 51.808C23.1088 51.9489 23.4766 52.1373 23.8489 52.3319L24.0785 52.4519L24.309 52.3335C24.7184 52.1231 25.1187 51.925 25.4796 51.7715C26.8976 51.1742 28.3342 51.1743 29.7512 51.7716C30.1136 51.9251 30.5148 52.1231 30.9233 52.334L31.1524 52.4523L31.3816 52.3342C31.7912 52.1232 32.1924 51.9252 32.5541 51.7717C33.9722 51.1742 35.4089 51.1742 36.8259 51.7716C37.1875 51.9251 37.5878 52.1231 37.9972 52.3335L38.2277 52.4519L38.4574 52.3319C38.8297 52.1373 39.1975 51.9489 39.5104 51.808C40.2598 51.4716 41.0309 51.2707 41.8028 51.2979L42.3204 51.3161V50.7982V45.3817V44.8401L41.7806 44.8833C41.5063 44.9052 41.2291 44.9162 40.949 44.9162C34.9988 44.9162 30.1295 39.8156 30.1295 33.4648C30.1295 27.115 34.9987 22.0144 40.949 22.0144C41.2291 22.0144 41.5063 22.0254 41.7806 22.0473ZM17.0029 21.5544H17.5029V21.0544V16.2282C17.5029 14.5817 16.2322 13.2001 14.6082 13.2001C12.9843 13.2001 11.7136 14.5817 11.7136 16.2282V21.0544V21.5544H12.2136H17.0029ZM32.3184 54.809C32.1654 54.8936 32.0224 54.9726 31.8838 55.0449L37.497 55.0446C37.3584 54.9724 37.2156 54.8935 37.0626 54.8089L37.0567 54.8057L37.0561 54.8053L37.0088 54.7791C36.3792 54.4296 35.5554 53.9724 34.6901 53.9724C33.8257 53.9724 33.0019 54.4296 32.3724 54.779L32.3251 54.8053L32.3244 54.8057L32.3184 54.809ZM31.8837 55.0449C31.4222 55.2847 30.884 55.2847 30.4225 55.0449H31.8837ZM40.949 24.6915C36.3195 24.6915 32.6125 28.6452 32.6125 33.4648C32.6125 38.2843 36.3195 42.2391 40.949 42.2391C45.5784 42.2391 49.2864 38.2844 49.2864 33.4648C49.2864 28.6451 45.5784 24.6915 40.949 24.6915Z" fill="#12A84D" stroke="black"/>
</svg>
