<svg width="69" height="62" viewBox="0 0 69 62" fill="none" xmlns="http://www.w3.org/2000/svg">
<path d="M55.5766 27.9699C52.1542 25.7844 48.9498 23.2403 47.9213 20.1703C47.0377 17.5223 47.8855 14.7553 47.4738 12.0592C46.639 6.45261 39.8544 1.45208 31.4962 0.272046C23.1395 -0.90799 13.8505 1.84291 9.62908 6.73959C6.92097 9.87377 6.24251 13.6065 6.34005 17.2117C6.43615 20.816 7.25949 24.4052 7.30825 28.0171C7.3685 32.6428 6.15788 37.2365 6.01301 41.8622C5.86814 46.4879 6.89659 51.3289 10.9358 55.1088C14.8058 58.7292 21.1687 61.026 27.7955 61.7359C34.4238 62.4458 41.293 61.6727 47.534 60.0376C53.3031 58.53 58.6978 56.2577 62.7012 53.1235C66.7045 49.9884 69.437 46.6154 68.9422 42.5325C67.974 34.5573 59.0005 30.1553 55.5766 27.9699Z" fill="#E8E9DA"/>
<g clip-path="url(#clip0_14_2)">
<path d="M54.6764 45.001V48.095C54.6764 49.806 53.3377 51.19 51.6837 51.19H39.7109C38.0569 51.19 36.7182 49.806 36.7182 48.095V45.001H54.6764Z" fill="#969FAA"/>
<path d="M45.6973 26.435H39.711V20.246H42.7046V23.34C42.7046 25.051 44.0433 26.435 45.6973 26.435Z" fill="#969FAA"/>
<path d="M39.7109 31.076V26.435H54.6764V45.001H36.7182V31.076H39.7109Z" fill="#12A84D"/>
<path d="M54.6764 23.34V26.435H45.6973C46.5185 26.435 47.2672 26.087 47.8166 25.531C48.3544 24.963 48.69 24.189 48.69 23.34V20.246H51.6837C53.3377 20.246 54.6764 21.63 54.6764 23.34Z" fill="#969FAA"/>
<path d="M48.69 20.246V23.34C48.69 24.189 48.3544 24.963 47.8166 25.531C47.2672 26.087 46.5185 26.435 45.6973 26.435C44.0433 26.435 42.7046 25.051 42.7046 23.34V20.246H48.69Z" fill="#E6E9ED"/>
<path d="M45.6973 34.171C46.5185 34.171 47.1937 34.869 47.1937 35.718C47.1937 36.567 46.5185 37.265 45.6973 37.265C44.8761 37.265 44.201 36.567 44.201 35.718C44.201 34.869 44.8761 34.171 45.6973 34.171Z" fill="#FF826E"/>
<path d="M39.7109 29.529V31.076H30.7318V21.793H39.7109V29.529Z" fill="#FCDA00"/>
<path d="M39.7109 7.86799V14.057H30.7318V4.77399H36.7182C38.3722 4.77399 39.7109 6.15799 39.7109 7.86799Z" fill="#FCDA00"/>
<path d="M36.7182 24.887V27.982H33.7245V24.887H36.7182Z" fill="#B4DD7F"/>
<path d="M36.7182 7.86801V10.962H33.7245V7.86801H36.7182Z" fill="#B4DD7F"/>
<path d="M30.7319 14.057V4.77399H18.7591V14.057H9.77998V27.982C9.77998 29.692 11.1187 31.076 12.7727 31.076H30.7319V21.793H39.7109V14.057H30.7319Z" fill="#12A84D"/>
<path d="M18.7591 7.86799V14.057H9.77998V7.86799C9.77998 6.15799 11.1187 4.77399 12.7727 4.77399H18.7591V7.86799Z" fill="#FCDA00"/>
<path d="M15.7664 7.86801V10.962H12.7727V7.86801H15.7664Z" fill="#B4DD7F"/>
<path d="M51.6837 50.416H39.7109C38.4719 50.416 37.4659 49.377 37.4659 48.095V45.775H53.9287V48.095C53.9287 49.377 52.9228 50.416 51.6837 50.416ZM38.9632 31.85V33.397H40.4596V30.303H43.4523V28.755H40.4596V27.208H53.9287V44.227H37.4659V31.85H38.9632ZM10.5286 27.982V14.83H19.5077V5.547H29.9832V14.83H38.9632V21.019H29.9832V30.303H12.7727C11.5336 30.303 10.5286 29.263 10.5286 27.982ZM12.7727 5.547H18.0114V13.283H10.5286V7.868C10.5286 6.587 11.5336 5.547 12.7727 5.547ZM38.9632 7.868V13.283H31.4795V5.547H36.7182C37.9573 5.547 38.9632 6.587 38.9632 7.868ZM38.9632 30.303H31.4795V22.567H38.9632V30.303ZM41.9559 21.019V23.34C41.9559 24.213 42.2481 25.011 42.7249 25.661H40.4596V21.019H41.9559ZM43.4523 23.34V21.019H47.9423V23.34C47.9423 24.621 46.9364 25.661 45.6973 25.661C44.4582 25.661 43.4523 24.621 43.4523 23.34ZM53.9287 23.34V25.661H48.6697C49.1466 25.011 49.4387 24.213 49.4387 23.34V21.019H51.6837C52.9228 21.019 53.9287 22.059 53.9287 23.34ZM51.6837 19.472H40.4596V7.868C40.4596 5.735 38.7814 4 36.7182 4H12.7727C10.7095 4 9.03133 5.735 9.03133 7.868V27.982C9.03133 30.115 10.7095 31.85 12.7727 31.85H35.9696V48.095C35.9696 50.229 37.6478 51.964 39.7109 51.964H51.6837C53.7469 51.964 55.4251 50.229 55.4251 48.095V23.34C55.4251 21.207 53.7469 19.472 51.6837 19.472Z" fill="black"/>
<path d="M45.6973 22.567C45.2853 22.567 44.9487 22.914 44.9487 23.34C44.9487 23.766 45.2853 24.114 45.6973 24.114C46.1094 24.114 46.446 23.766 46.446 23.34C46.446 22.914 46.1094 22.567 45.6973 22.567Z" fill="black"/>
<path d="M38.9632 48.869H40.4596V47.322H38.9632V48.869Z" fill="black"/>
<path d="M50.935 48.869H52.4314V47.322H50.935V48.869Z" fill="black"/>
<path d="M43.4523 48.869H47.9423V47.322H43.4523V48.869Z" fill="black"/>
<path d="M50.935 33.397H52.4314V28.755H47.9423V30.303H50.935V33.397Z" fill="black"/>
<path d="M50.935 41.133H47.9423V42.68H52.4314V38.039H50.935V41.133Z" fill="black"/>
<path d="M43.4523 42.68V41.133H40.4596V38.039H38.9632V42.68H43.4523Z" fill="black"/>
<path d="M45.6973 34.944C46.1094 34.944 46.446 35.292 46.446 35.718C46.446 36.144 46.1094 36.491 45.6973 36.491C45.2853 36.491 44.9487 36.144 44.9487 35.718C44.9487 35.292 45.2853 34.944 45.6973 34.944ZM45.6973 38.039C46.9364 38.039 47.9423 36.999 47.9423 35.718C47.9423 34.437 46.9364 33.397 45.6973 33.397C44.4583 33.397 43.4523 34.437 43.4523 35.718C43.4523 36.999 44.4583 38.039 45.6973 38.039Z" fill="black"/>
<path d="M34.4732 8.64199H35.9696V10.189H34.4732V8.64199ZM37.4659 11.736V7.09399H32.9769V11.736H37.4659Z" fill="black"/>
<path d="M15.0177 10.189H13.5213V8.64199H15.0177V10.189ZM16.5141 7.09399H12.025V11.736H16.5141V7.09399Z" fill="black"/>
<path d="M34.4732 25.661H35.9696V27.208H34.4732V25.661ZM32.9769 28.755H37.4659V24.114H32.9769V28.755Z" fill="black"/>
<path d="M12.025 17.925H15.0177V19.472H16.5141V16.378H12.025V17.925Z" fill="black"/>
<path d="M13.5213 19.472H12.025V22.567H16.5141V21.019H13.5213V19.472Z" fill="black"/>
<path d="M13.5213 24.114H12.025V27.208H15.0177V28.755H16.5141V25.661H13.5213V24.114Z" fill="black"/>
<path d="M23.9968 7.09399H21.0041V8.64199H23.9968V7.09399Z" fill="black"/>
<path d="M26.9905 7.09399V10.189H25.4941V11.736H28.4868V7.09399H26.9905Z" fill="black"/>
<path d="M21.0041 14.83H22.5004V10.189H21.0041V14.83Z" fill="black"/>
<path d="M23.9968 14.83H26.9905V16.378H28.4868V13.283H23.9968V14.83Z" fill="black"/>
<path d="M37.4659 16.378H35.9696V19.472H37.4659V16.378Z" fill="black"/>
<path d="M31.4795 17.925H34.4732V16.378H29.9832V19.472H31.4795V17.925Z" fill="black"/>
<path d="M21.0041 17.925H18.0114V19.472H22.5004V16.378H21.0041V17.925Z" fill="black"/>
<path d="M23.9968 19.472H28.4868V17.925H23.9968V19.472Z" fill="black"/>
<path d="M19.5077 21.019H18.0114V24.114H22.5004V22.567H19.5077V21.019Z" fill="black"/>
<path d="M26.9905 24.114H23.9968V25.661H28.4868V21.019H26.9905V24.114Z" fill="black"/>
<path d="M25.4941 21.019H23.9968V22.567H25.4941V21.019Z" fill="black"/>
<path d="M18.0114 27.208H21.0041V28.755H22.5004V25.661H18.0114V27.208Z" fill="black"/>
<path d="M23.9968 28.755H25.4941V27.208H23.9968V28.755Z" fill="black"/>
<path d="M26.9905 28.755H28.4868V27.208H26.9905V28.755Z" fill="black"/>
<path d="M14.27 38.039H27.7382V36.491H14.27V38.039Z" fill="black"/>
<path d="M14.27 41.133H27.7382V39.586H14.27V41.133Z" fill="black"/>
<path d="M14.27 44.227H27.7382V42.68H14.27V44.227Z" fill="black"/>
<path d="M14.27 47.322H21.7528V45.775H14.27V47.322Z" fill="black"/>
<path d="M26.2418 47.322H27.7382V45.775H26.2418V47.322Z" fill="black"/>
<path d="M23.2491 47.322H24.7455V45.775H23.2491V47.322Z" fill="black"/>
</g>
<defs>
<clipPath id="clip0_14_2">
<rect width="65" height="48" fill="white" transform="translate(0 4)"/>
</clipPath>
</defs>
</svg>
